<svg width="3000" height="3000" viewBox="0 0 3000 3000" fill="none" xmlns="http://www.w3.org/2000/svg">
<path d="M1457.33 2.13331C1452.53 2.39997 1434.27 3.19997 1416.67 3.99997C1379.07 5.73331 1354.8 7.86664 1312 13.2C1282.4 16.9333 1239.07 23.3333 1234.67 24.6666C1233.6 25.0666 1223.07 27.0666 1211.33 29.2C1174.93 36 1118.93 49.3333 1089.33 58.1333C1083.07 60 1072 63.3333 1064.67 65.6C1041.87 72.4 989.333 90.1333 972.667 96.6666C946.133 106.933 924.667 115.467 915.333 119.6C909.467 122.133 900.533 126 895.333 128.267C881.867 134 876.4 136.667 840.933 153.867C768 189.2 699.067 230.267 631.467 278.533C620.667 286.267 609.2 294.4 606.133 296.667C603.2 298.8 589.6 309.2 576 319.867C482.4 393.067 390.667 484.933 317.6 578.667C277.467 630.267 229.867 700.667 202.267 749.333C189.467 771.867 169.6 808.667 162.267 823.333C152.267 843.2 133.333 882.533 133.333 883.467C133.333 883.867 131.2 888.667 128.667 894.133C126.133 899.6 124 904.4 124 904.8C124 905.067 122.267 909.333 120 914C117.867 918.667 116 922.933 116 923.467C116 923.867 114.533 927.733 112.8 931.867C108.4 941.867 95.3333 974.8 92.1333 984C69.6 1048.53 56 1093.2 46 1135.6C44.2667 1143.2 41.8667 1152.4 40.8 1156.27C33.2 1184.13 18.1333 1267.6 13.2 1310C3.86667 1388.93 2 1420.67 2 1500C2 1579.33 3.86667 1611.07 13.2 1690C18.1333 1732.4 33.2 1815.87 40.8 1843.73C41.8667 1847.6 44.2667 1856.8 46 1864.4C56 1906.8 69.6 1951.47 92.1333 2016C95.3333 2025.2 108.4 2058.13 112.8 2068.13C114.533 2072.27 116 2076.13 116 2076.53C116 2077.07 117.733 2081.33 120 2086C122.133 2090.67 124 2094.93 124 2095.2C124 2095.6 126.133 2100.4 128.667 2105.87C131.2 2111.33 133.333 2116.13 133.333 2116.53C133.333 2116.8 137.867 2126.67 143.467 2138.27C183.6 2222.27 223.867 2291.33 274.933 2363.6C346.8 2465.47 432.267 2559.2 528.667 2641.47C549.333 2659.2 592.533 2693.73 606.133 2703.33C609.2 2705.6 620.667 2713.73 631.467 2721.47C699.067 2769.73 768 2810.8 840.933 2846.13C878.4 2864.27 882.4 2866.27 897.333 2872.67C903.6 2875.33 912.533 2879.2 917.333 2881.33C924.933 2884.67 945.6 2892.93 972.667 2903.33C989.867 2910.13 1040.93 2927.33 1064.67 2934.4C1072 2936.67 1083.07 2940 1089.33 2941.87C1100.53 2945.2 1108.13 2947.2 1139.33 2954.93C1183.6 2965.87 1217.33 2972.67 1275.47 2982C1293.2 2984.8 1339.47 2990.27 1364.67 2992.67C1442.67 2999.73 1558.27 2999.73 1635.33 2992.67C1712.4 2985.47 1791.47 2972.27 1860.67 2954.93C1869.47 2952.67 1880.53 2949.87 1885.33 2948.67C1893.87 2946.53 1898.4 2945.33 1932 2935.33C1951.2 2929.6 1997.6 2914.4 2007.33 2910.67C2011.07 2909.33 2020.67 2905.6 2028.67 2902.67C2098.67 2876.27 2177.73 2839.33 2238.67 2804.4C2241.2 2802.8 2246.93 2799.6 2251.33 2797.07C2260.27 2792 2292.53 2772.53 2296.67 2769.87C2376.27 2717.47 2423.33 2682.67 2476.67 2636.8C2538.27 2583.87 2607.87 2512.93 2654.8 2455.33C2665.33 2442.4 2683.73 2419.33 2687.33 2414.53C2708.8 2386 2717.2 2374.53 2726.13 2362C2732.8 2352.8 2764.4 2305.07 2770 2296C2771.6 2293.47 2774.93 2288 2777.6 2284C2782.53 2276.13 2798.27 2249.33 2811.07 2226.67C2831.07 2191.33 2863.6 2124.53 2879.87 2085.33C2883.73 2076.13 2888.27 2065.33 2890.13 2061.2C2891.87 2057.07 2893.33 2053.2 2893.33 2052.67C2893.33 2052.13 2894.27 2049.87 2895.33 2047.6C2896.4 2045.2 2900 2035.87 2903.33 2026.67C2906.67 2017.47 2910.53 2006.93 2912 2003.33C2915.87 1993.2 2929.73 1950.8 2935.33 1932C2938 1922.8 2941.6 1910.53 2943.33 1904.67C2951.73 1876 2963.87 1824 2972 1781.33C3007.07 1598.27 3007.07 1401.73 2972 1218.67C2963.87 1176 2951.73 1124 2943.33 1095.33C2941.6 1089.47 2938 1077.2 2935.33 1068C2929.73 1049.2 2915.87 1006.8 2912 996.667C2910.53 992.933 2906.67 982.533 2903.33 973.333C2900 964.133 2896.4 954.8 2895.33 952.4C2894.27 950.133 2893.33 947.867 2893.33 947.333C2893.33 946.8 2891.87 942.933 2890.13 938.8C2888.27 934.667 2883.73 923.867 2879.87 914.667C2863.6 875.467 2831.07 808.667 2811.07 773.333C2798.27 750.667 2782.53 723.867 2777.6 716C2774.93 712 2771.6 706.533 2770 704C2764.4 694.933 2732.8 647.2 2726.13 638C2717.2 625.467 2708.8 614 2687.33 585.467C2644.93 528.933 2579.2 457.067 2519.33 401.467C2450.13 337.333 2394.8 294.667 2296.67 230.133C2292.53 227.467 2260.27 208 2251.33 202.933C2246.93 200.4 2241.2 197.2 2238.67 195.6C2177.73 160.667 2098.67 123.733 2028.67 97.3333C2020.67 94.4 2011.07 90.6666 2007.33 89.3333C1986.93 81.4666 1909.07 57.2 1885.33 51.3333C1880.53 50.1333 1869.47 47.3333 1860.67 45.0666C1775.2 23.7333 1676.4 8.79997 1587.33 3.99997C1560 2.53331 1472.8 1.33331 1457.33 2.13331ZM1552.67 594.8C1563.2 598.8 1574.53 610 1578.67 620.667C1583.47 633.067 1582.93 643.867 1576.8 662C1569.2 684.267 1563.07 704.933 1560.8 716C1559.6 721.467 1558.13 728.4 1557.33 731.333C1551.07 756.933 1546.8 842 1551.6 846.8C1552.53 847.733 1560.53 848.4 1574.27 848.667C1592.4 849.067 1596.93 849.6 1607.07 852.533C1627.6 858.8 1644.13 869.467 1655.33 884C1661.87 892.533 1669.87 907.733 1671.87 915.467C1676.27 932.4 1678.93 960.133 1676.4 961.733C1675.73 962.133 1670.67 960.267 1664.93 957.733C1651.47 951.867 1632 947.067 1614 945.333C1594.53 943.6 1382 943.6 1360.67 945.467C1351.87 946.133 1340 948 1334.13 949.467C1328.4 950.8 1323.33 952 1322.93 952C1321.47 952 1324 930.267 1326.67 919.733C1332.4 897.467 1345.6 878.133 1363.07 866.8C1367.6 863.733 1372 860.8 1372.67 860.267C1373.47 859.733 1374.27 859.067 1374.67 859.067C1375.07 858.933 1377.2 858.133 1379.33 857.2C1384.4 855.2 1400.27 850.8 1408 849.2C1411.2 848.533 1414.53 847.333 1415.2 846.667C1416 845.867 1417.07 834.8 1417.6 821.867C1418.27 805.733 1419.87 790.933 1422.8 774.267C1425.07 760.933 1427.2 749.6 1427.6 748.933C1427.87 748.4 1429.6 742.8 1431.47 736.267C1433.33 729.867 1435.33 723.467 1436 722C1436.67 720.533 1438.53 715.467 1440.13 710.667C1441.87 705.867 1444 700.533 1444.93 698.667C1445.87 696.8 1446.67 694.933 1446.67 694.4C1446.67 693.2 1456.67 672.933 1463.33 660.667C1471.07 646.533 1487.47 621.733 1495.2 612.533C1502.67 603.6 1511.07 597.067 1519.33 594.133C1527.6 591.2 1543.73 591.467 1552.67 594.8ZM1282 1050.67C1315.2 1053.47 1342.13 1060.4 1398.67 1081.2C1417.73 1088.13 1438.8 1093.07 1468.67 1097.6C1474.4 1098.4 1489.73 1098.67 1508 1098.13C1535.73 1097.47 1539.6 1097.07 1558.67 1092.8C1581.47 1087.73 1593.33 1084.27 1615.33 1075.87C1638.93 1066.93 1670.27 1058.13 1693.87 1054C1713.2 1050.53 1748.67 1048.8 1766.13 1050.4C1780.4 1051.73 1821.2 1060.67 1828.67 1064C1830.13 1064.67 1835.2 1066.4 1840 1067.87C1893.73 1084.13 1947.2 1127.33 1981.2 1181.73C2000 1211.87 2014.67 1251.33 2019.2 1283.47C2022.67 1308.13 2021.47 1347.2 2016.8 1368.67C2014.8 1377.73 2011.6 1392.53 2009.47 1403.33C2005.6 1422.8 1995.33 1468.8 1988 1500C1982.67 1523.07 1976.67 1549.33 1972 1571.33C1966.67 1595.47 1960.93 1621.2 1956 1644C1953.6 1654.67 1950.27 1669.87 1948.4 1678C1944.67 1695.07 1945.2 1692.8 1939.87 1716.67C1937.6 1726.93 1934.27 1741.6 1932.67 1749.33C1930.93 1757.07 1927.6 1771.73 1925.33 1782C1923.07 1792.27 1919.33 1809.07 1917.2 1819.33C1914.93 1829.6 1912.93 1838.93 1912.67 1840C1911.73 1843.87 1905.33 1872.8 1901.33 1891.73C1899.07 1902.13 1896.93 1911.47 1896.53 1912.4C1896.13 1913.47 1894.4 1921.07 1892.67 1929.47C1890.93 1937.87 1887.6 1953.07 1885.33 1963.33C1881.33 1980.8 1878.4 1994 1870.13 2032.67C1868.27 2041.47 1865.47 2053.2 1864.13 2058.67C1862.67 2064.13 1861.2 2071.33 1860.67 2074.67C1860.27 2078 1859.2 2082.67 1858.53 2084.93C1857.73 2087.33 1855.33 2097.47 1853.2 2107.33C1851.07 2117.2 1847.47 2133.6 1845.33 2143.73C1843.07 2153.73 1839.47 2170.13 1837.33 2180C1822.93 2247.07 1814.27 2280.4 1806.53 2298.8C1804.4 2304.27 1802.27 2309.2 1802.13 2310C1799.87 2318 1788.13 2338.67 1777.2 2354C1761.2 2376.27 1738.13 2394 1715.33 2401.6C1700.67 2406.4 1694.53 2407.2 1665.47 2407.6L1635.6 2408.13L1608.13 2400.13C1593.07 2395.73 1574.93 2390.93 1568 2389.33C1561.07 2387.87 1553.6 2386 1551.33 2385.33C1543.6 2382.93 1510.4 2378.67 1498.67 2378.67C1486.93 2378.67 1461.07 2381.6 1452 2383.87C1449.47 2384.53 1441.6 2386.53 1434.67 2388.4C1427.73 2390.27 1410.27 2395.2 1396 2399.47L1370 2407.2L1336.4 2407.73C1308.53 2408.13 1302.4 2407.87 1299.73 2406.27C1298 2405.2 1293.47 2403.6 1289.47 2402.8C1280.8 2400.93 1273.07 2397.73 1262.27 2391.07C1250.8 2384.13 1250.27 2383.73 1235.33 2368.53C1225.33 2358.53 1219.87 2351.6 1213.73 2341.2C1195.2 2309.87 1180.8 2268.53 1169.2 2213.33C1167.6 2205.6 1164.93 2192.67 1163.2 2184.67C1161.33 2176.53 1157.87 2160.4 1155.33 2148.67C1152.8 2136.93 1149.2 2120.67 1147.47 2112.67C1145.6 2104.53 1142.27 2089.6 1140.13 2079.47C1137.87 2069.33 1135.73 2060 1135.33 2058.67C1134.93 2057.47 1133.2 2049.6 1131.33 2041.2C1127.47 2023.07 1121.47 1995.87 1116.67 1974.67C1114.8 1966.27 1111.47 1951.2 1109.33 1941.33C1107.2 1931.47 1103.2 1913.73 1100.53 1902C1098 1890.27 1094.13 1872.8 1092 1863.33C1089.87 1853.73 1086.53 1838.8 1084.67 1830C1082.67 1821.2 1079.33 1806.13 1077.2 1796.67C1075.2 1787.07 1071.6 1771.2 1069.33 1761.33C1067.07 1751.47 1063.47 1735.2 1061.33 1725.33C1059.33 1715.47 1055.6 1698.93 1053.33 1688.67C1051.07 1678.4 1047.33 1661.6 1045.2 1651.33C1042.93 1641.07 1040.53 1630.27 1039.87 1627.33C1039.33 1624.4 1037.6 1616.53 1036.13 1610C1030.67 1584.8 1025.33 1560 1021.33 1542C1018.93 1531.73 1015.33 1515.2 1013.33 1505.33C1008.27 1482 1002.4 1454.67 997.2 1431.33C994.933 1421.07 991.333 1404.27 989.2 1394C987.067 1383.73 984.533 1371.47 983.467 1366.67C975.2 1329.2 976.933 1283.33 988 1246.93C998.267 1213.33 1013.33 1185.47 1038.4 1154C1055.47 1132.67 1088.93 1102.4 1106 1092.8C1108.27 1091.6 1112.13 1089.33 1114.67 1087.87C1120.67 1084.13 1139.47 1074.67 1140.4 1074.67C1140.93 1074.67 1144.4 1073.2 1148.27 1071.47C1152.13 1069.73 1158 1067.6 1161.2 1066.67C1164.4 1065.87 1168 1064.53 1169.2 1063.87C1170.4 1063.2 1177.6 1061.2 1185.33 1059.33C1193.07 1057.33 1201.2 1055.2 1203.33 1054.53C1207.2 1053.2 1244.4 1049.87 1258.13 1049.47C1261.87 1049.47 1272.53 1050 1282 1050.67Z" fill="#E84B3B"/>
</svg>
