<svg xmlns="http://www.w3.org/2000/svg" viewBox="45 106 71 15"><g xmlns="http://www.w3.org/2000/svg" clip-path="url(#clip1_14_7218)">
<path fill-rule="evenodd" clip-rule="evenodd" d="M45 113.632C45 108.788 46.8608 106 50.0785 106C52.8501 106 54.5241 108.13 54.6921 111.691H51.4729C51.3237 109.883 50.8401 108.846 50.0408 108.846C48.9243 108.846 48.2742 110.522 48.2742 113.613C48.2742 116.495 48.907 118.173 50.0785 118.173C50.9155 118.173 51.4918 117.155 51.6221 115.667H49.7252V112.802H54.6733C54.6167 115.441 54.6167 118.851 54.6544 120.753H52.6083C52.6025 120.707 52.5967 120.66 52.591 120.613L52.5909 120.613L52.5909 120.613V120.613C52.559 120.353 52.5258 120.082 52.4779 119.812C51.8263 120.566 50.9893 120.981 49.967 120.981C46.8043 120.981 45 118.305 45 113.632ZM56.3676 106.17H60.4034C63.1939 106.17 65.0548 107.979 65.0548 110.505C65.0548 112.013 64.2555 113.218 62.9709 113.821C63.7341 114.369 64.1801 115.291 64.3842 116.573L64.6637 118.345C64.849 119.495 65.0171 120.267 65.2039 120.757H61.9486C61.7806 120.341 61.633 119.664 61.465 118.646L61.2231 117.138C61.0001 115.856 60.628 115.329 59.9574 115.329H59.5303V120.757H56.3676V106.17ZM60.0689 112.577C61.0928 112.577 61.7994 111.843 61.7994 110.805C61.7994 109.694 61.0928 108.94 60.0689 108.94H59.5287V112.576H60.0689V112.577ZM66.2936 106.17V116.61C66.2936 119.247 67.988 121 70.5917 121C73.1952 121 74.9447 119.249 74.9447 116.61V106.17H71.7081V116.723C71.7081 117.626 71.2999 118.173 70.6481 118.173C69.9399 118.173 69.5128 117.628 69.5128 116.723V106.17H66.2936ZM76.5808 106.17H80.86C83.4464 106.17 85.2319 107.829 85.2319 110.183C85.2319 111.427 84.544 112.463 83.5204 113.029C84.6557 113.689 85.3812 114.914 85.3812 116.384C85.3812 119.117 83.5767 120.757 80.9717 120.757H76.5808V106.17ZM80.4329 112.011C81.3454 112.011 81.9577 111.37 81.9577 110.409C81.9577 109.449 81.3061 108.788 80.3952 108.788H79.7624V112.011H80.4313H80.4329ZM80.4142 118.118C81.4191 118.118 82.088 117.364 82.088 116.271C82.088 115.178 81.4004 114.367 80.4142 114.367H79.7624V118.118H80.4142ZM92.0744 120.755H95.2559V106.17H92.0744V112.107H89.9718V106.17H86.809V120.755H89.9718V114.97H92.0744V120.755ZM96.9126 116.61V106.17H100.132V116.723C100.132 117.628 100.561 118.173 101.267 118.173C101.919 118.173 102.327 117.626 102.327 116.723V106.17H105.564V116.61C105.564 119.249 103.814 121 101.211 121C98.6071 121 96.9126 119.247 96.9126 116.61ZM111.479 106.17H107.2V120.757H111.59C114.196 120.757 116 119.117 116 116.384C116 114.914 115.274 113.689 114.139 113.029C115.163 112.463 115.851 111.427 115.851 110.183C115.851 107.829 114.065 106.17 111.479 106.17ZM112.577 110.409C112.577 111.37 111.963 112.011 111.052 112.011H110.381V108.788H111.014C111.925 108.788 112.577 109.449 112.577 110.409ZM112.707 116.271C112.707 117.364 112.038 118.118 111.033 118.118H110.381V114.367H111.033C112.019 114.367 112.707 115.178 112.707 116.271Z" fill="white"></path>
</g></svg>