<svg xmlns="http://www.w3.org/2000/svg" width="99.585" height="42.158" viewBox="0 0 99.585 42.158" xmlns:xlink="http://www.w3.org/1999/xlink">
 <defs>
  <style>
   .a{fill:#ff4940;}
  </style>
 </defs>
 <g transform="translate(0)">
  <g transform="translate(24.768 9.613)">
   <path class="a" d="M783.991,594.732c-1.267.619-2.18,1.8-3.623,2.18-2.239.589-3.093.354-4.3-1.591-.442-.678-.766-.56-1.267-.147a14.1,14.1,0,0,1-1.915,1.355c-3.506,1.8-7.041.088-7.335-3.83a19.575,19.575,0,0,1,6.128-16.35,8.463,8.463,0,0,1,4.92-2.121c1.886-.236,3.123.56,4.3,2.828a3.638,3.638,0,0,1,4.39-1.738c1.738.412,2.3,1.532,1.591,3.182a73.934,73.934,0,0,0-3.712,9.574c-.236.913-.736,2.239.088,2.681.8.442,1.5-.8,2.15-1.444a9.288,9.288,0,0,0,1.945-3.594c.972-2.828,2.033-5.627,3.24-8.337,1.09-2.445,3.417-3.093,5.479-1.414.648.53.943.383,1.444-.059a8.3,8.3,0,0,1,1.591-1.06c3.653-1.915,6.923-.088,7.129,4.036.265,4.537-1.384,8.543-3.682,12.314-.206.324-.442.648-.677,1,1.738-.235,3.741-2.3,4.6-4.772,1.119-3.3,2.357-6.54,3.741-9.722,1.267-2.917,3.182-3.476,5.8-1.591.53.383.737.206,1.09-.088a8.228,8.228,0,0,1,2.092-1.355c3.476-1.591,6.452.177,6.805,4.006.383,4.507-1.267,8.455-3.447,12.226-.206.354-.412.677-.589,1-.088.118-.412.177-.206.383.147.147.354.03.471-.147a8.8,8.8,0,0,0,4.3-5.362,51.052,51.052,0,0,1,4.007-9.751,3.288,3.288,0,0,1,3.918-1.827c2.091.383,2.681,1.473,1.856,3.417a66.6,66.6,0,0,0-3.624,9.456c-.236.884-.677,2.21,0,2.592.913.471,1.65-.766,2.3-1.443a25.845,25.845,0,0,0,2.092-2.651c.5-.707,1.09-1,1.856-.53.8.5.472,1.149.059,1.768a30.065,30.065,0,0,1-6.481,7.571,8.633,8.633,0,0,1-.825.619c-3.358,2.268-5.862,1.149-6.393-3.034a32.614,32.614,0,0,1-5.479,3.093,16.37,16.37,0,0,1-6.923,1c-1.09-.059-1.738-.825-2.651-1.679-.766,2.71-1.5,5.273-2.209,7.807-.088.324-.147.677-.236,1-.471,2.092-.943,2.563-2.416,2.416a3.514,3.514,0,0,1-3.329-3.152A15.267,15.267,0,0,1,802.9,599c.413-1.65.913-3.27,1.414-5.1-4.507,2.386-8.779,4.684-13.875,1.885a72.956,72.956,0,0,0-2.121,7.247c-.088.324-.177.677-.236,1-.56,2.415-.972,2.8-2.74,2.5-2.121-.354-3.417-1.944-3-3.918.471-2.3,1.149-4.537,1.738-6.835.088-.324.118-.677.177-1,.118-.089.177-.177.029-.265A1.586,1.586,0,0,0,783.991,594.732Zm15.761-14.759c-.118-.648.177-1.3-.354-1.532-.56-.265-.884.294-1.178.648a23.935,23.935,0,0,0-5.539,12.7c-.059.472-.118,1.09.412,1.3.442.177.8-.265,1.09-.589A25.612,25.612,0,0,0,799.752,579.973Zm19.738.118c-.118-.707.206-1.414-.353-1.679s-.972.354-1.3.737a25.675,25.675,0,0,0-5.45,12.609c-.088.471-.088,1.119.354,1.355.5.265.884-.324,1.178-.648A25.276,25.276,0,0,0,819.489,580.091Zm-41.243.324c-.206-.737.353-1.768-.471-2.033-.737-.235-1.208.707-1.591,1.3A24,24,0,0,0,772,591.4c-.03.53-.236,1.326.442,1.532.56.177.943-.442,1.237-.854A23.911,23.911,0,0,0,778.246,580.415Z" transform="translate(-765.474 -574.086)">
   </path>
  </g>
  <g transform="translate(0 0.804)">
   <path class="a" d="M685.123,566.624c-.471,1.885-.972,3.741-1.443,5.627a2,2,0,0,1-2.5,1.8,3.823,3.823,0,0,1-3.623-4.831,97.479,97.479,0,0,1,6.746-20c.56-1.267,1.62-1.473,2.769-1.591,4.183-.383,4.772.412,3.181,4.213-.943,2.3-1.8,4.625-2.74,7.041,4.154-1.031,7.807-5.951,7.63-10.016a4.068,4.068,0,0,0-4.3-3.918c-4.419-.118-7.483,2.209-9.839,5.685a9.845,9.845,0,0,0-1.738,4.478c-.206,1.8-1.532,2.445-3.123,1.532a4.2,4.2,0,0,1-1.768-4.89,10.473,10.473,0,0,1,3.3-5.126c5.744-5.037,12.314-6.3,19.443-3.653,6.069,2.268,7.306,8.543,2.8,13.463a17.33,17.33,0,0,1-7.424,4.625,1.422,1.422,0,0,0-1.179,1.8c.383,3.447,1.061,6.776,3.241,9.633a7.444,7.444,0,0,0,9.633,2.475,15.6,15.6,0,0,1,1.473-.619,1.038,1.038,0,0,1,1.267.5,1.119,1.119,0,0,1-.177,1.355c-2.71,3.388-9.044,5.42-12.992,4.095-4.006-1.355-5.951-4.566-7.218-8.337C685.977,570.218,685.742,568.42,685.123,566.624Z" transform="translate(-674.184 -541.616)">
   </path>
  </g>
  <g transform="translate(90.8)">
   <path class="a" d="M1017.64,543.076a4.558,4.558,0,0,1-4.6,4.39,4.389,4.389,0,0,1-4.183-4.6,4.469,4.469,0,0,1,4.6-4.213A4.425,4.425,0,0,1,1017.64,543.076Z" transform="translate(-1008.858 -538.652)">
   </path>
  </g>
  <g transform="translate(80.896 27.52)">
   <path class="a" d="M972.892,640.322c-.118.177-.354.265-.471.147-.206-.206.118-.265.206-.383C972.686,640.145,972.8,640.233,972.892,640.322Z" transform="translate(-972.353 -640.086)">
   </path>
  </g>
 </g>
</svg>