<svg version="1.1" id="Calque_1" xmlns:x="ns_extend;" xmlns:i="ns_ai;" xmlns:graph="ns_graphs;" xmlns="http://www.w3.org/2000/svg" xmlns:xlink="http://www.w3.org/1999/xlink" x="0px" y="0px" viewBox="0 0 320.6 76.4" style="enable-background:new 0 0 320.6 76.4;" xml:space="preserve">
 <style type="text/css">
  .st0{fill:#00D369;}
	.st1{fill:#060E33;}
 </style>
 <metadata>
  <sfw xmlns="ns_sfw;">
   <slices>
   </slices>
   <sliceSourceBounds bottomLeftOrigin="true" height="76.4" width="320.6" x="28.4" y="27.4">
   </sliceSourceBounds>
  </sfw>
 </metadata>
 <g>
  <path class="st0" d="M48.3,7.8v19.7c0,0.5-0.1,1.8-0.1,2.3V30C47.5,41.2,39.8,48.1,28,48.1c-5.2,0.1-10.2-1.9-13.8-5.6
		c-3.4-3.7-5.2-8.6-4.9-13.6c0.4-9.4,8.5-16.3,18.7-16.3l0,0c2-0.1,4.1,0.2,6,0.9v9.6l-0.5-0.2c-1.4-0.6-3-0.9-4.5-0.8
		c-3.2-0.1-6.1,1-7.7,2.9c-1.2,1.5-1.9,3.4-1.9,5.3c0,2,0.7,3.9,1.9,5.4c2,2.1,4.8,3.1,7.7,2.9c6.8-0.3,8.6-5.8,9.1-9.1
		c0.2-1.6,0.3-4.8,0.3-5.2V1.7c-3-1.1-6.3-1.7-9.5-1.7C13.1-0.2,0.2,12.5,0,28.4s12.5,28.8,28.4,28.9s28.8-12.5,28.9-28.4
		C57.4,21,54.1,13.3,48.3,7.8z">
  </path>
  <path class="st0" d="M101.8,4.1c0-1.4-1.1-2.5-2.5-2.5c-1.4,0-2.5,1.1-2.5,2.5V19c-1.2-1.4-2.7-2.6-4.3-3.4c-2.1-1-4.4-1.5-6.7-1.5
		c-2.7,0-5.4,0.7-7.7,2c-2.3,1.3-4.1,3.3-5.4,5.6c-1.3,2.4-2,5.1-2,7.9c0,2.8,0.7,5.5,2,7.9c1.3,2.4,3.2,4.3,5.6,5.6
		c2.4,1.4,5.1,2.1,7.9,2c2.8,0,5.5-0.7,7.9-2c2.3-1.3,4.3-3.3,5.6-5.6c1.4-2.4,2.1-5.1,2-7.9V16.8c0-0.2,0-0.4-0.1-0.5V4.1H101.8z
		 M96.9,29.6c0,2-0.5,3.9-1.4,5.6c-0.9,1.6-2.2,3-3.8,4l0,0c-1.6,1-3.5,1.5-5.4,1.4c-1.9,0-3.8-0.5-5.5-1.4c-1.6-1-2.9-2.4-3.8-4
		c-0.9-1.7-1.4-3.6-1.4-5.6c0-2,0.5-3.9,1.4-5.6c0.9-1.6,2.2-3,3.8-3.9c1.7-0.9,3.6-1.4,5.5-1.4c2.6,0,5.1,0.9,7.1,2.6
		c1.9,1.7,3.2,4.1,3.5,6.7c0,0.1,0,0.3,0.1,0.4C96.9,28.8,96.9,29.2,96.9,29.6z">
  </path>
  <path class="st0" d="M126.9,16c-2.2-1.3-4.7-2-7.3-1.9c-2.7,0-5.3,0.7-7.6,2c-2.2,1.3-4,3.3-5.2,5.6c-1.3,2.5-1.9,5.3-1.9,8.1
		c0,2.8,0.6,5.6,2,8c1.3,2.3,3.2,4.3,5.5,5.6c5.8,3.1,13,2.5,18.2-1.6c0.4-0.4,0.7-0.9,0.7-1.5c0-1.3-1.1-2.4-2.5-2.3
		c-0.6,0-1.1,0.2-1.5,0.6c-0.9,0.7-2,1.3-3.1,1.6c-1.2,0.4-2.5,0.7-3.8,0.7c-2.7,0.1-5.4-0.9-7.4-2.7c-1.9-1.7-3.1-4.1-3.3-6.6h21.6
		c0.6,0,1.2-0.2,1.7-0.6c0.4-0.5,0.7-1.1,0.7-1.7c0-2.7-0.6-5.4-1.8-7.8C130.8,19.3,129.1,17.3,126.9,16z M112.9,21
		c1.8-1.7,4.2-2.5,6.6-2.5c2.4-0.1,4.7,0.8,6.4,2.5c1.6,1.6,2.7,3.8,2.9,6.1h-19.1C110.1,24.8,111.2,22.6,112.9,21z">
  </path>
  <path class="st0" d="M146.3,40h-1.4c-0.9,0-1.7-0.5-2.1-1.3c-0.6-1.1-1-2.3-0.9-3.6V4c0.1-1.3-1-2.4-2.3-2.5c-0.1,0-0.1,0-0.2,0
		c-0.6,0-1.3,0.2-1.7,0.7C137.3,2.7,137,3.3,137,4v31.1c-0.1,2.5,0.7,5,2.2,7c1.3,1.8,3.5,2.8,5.7,2.8h0.7c0.7,0,1.5-0.2,2-0.7
		c0.5-0.5,0.8-1.1,0.8-1.8c0-0.6-0.2-1.2-0.6-1.7C147.5,40.3,146.9,40,146.3,40z">
  </path>
  <path class="st0" d="M154.1,14.3c-1.3-0.1-2.4,1-2.5,2.3c0,0.1,0,0.2,0,0.2v25.6c0,1.4,1.1,2.5,2.5,2.5s2.5-1.1,2.5-2.5V16.8
		c0-0.7-0.2-1.3-0.7-1.8C155.4,14.6,154.8,14.3,154.1,14.3z">
  </path>
  <path class="st0" d="M154.1,4.2c-0.9,0-1.7,0.3-2.4,0.9c-0.7,0.6-1,1.5-1,2.4c0,0.9,0.3,1.8,1,2.4c0.6,0.7,1.5,1,2.4,1
		c1.9,0,3.4-1.5,3.4-3.4c0-0.9-0.3-1.8-1-2.4C155.9,4.5,155,4.2,154.1,4.2z">
  </path>
  <path class="st0" d="M188.9,16.6c0-0.9-0.5-1.7-1.3-2.1c-0.8-0.4-1.7-0.3-2.4,0.1c-0.4,0.2-0.7,0.6-0.9,1l-10,22l-10.1-21.9
		c-0.2-0.4-0.5-0.7-0.8-1c-0.7-0.4-1.5-0.4-2.2-0.1c-0.9,0.3-1.4,1.2-1.4,2.1c0,0.3,0.1,0.6,0.2,0.9l12.1,25.7
		c0.3,1,1.3,1.6,2.3,1.6c1.1,0,2-0.6,2.4-1.6l12-25.8C188.9,17.2,188.9,16.9,188.9,16.6z">
  </path>
  <path class="st0" d="M211.1,16c-2.2-1.3-4.7-2-7.3-1.9c-2.7,0-5.3,0.7-7.6,2c-2.2,1.3-4,3.3-5.2,5.6c-1.3,2.5-1.9,5.3-1.9,8.1
		c0,2.8,0.6,5.6,2,8c1.3,2.3,3.2,4.3,5.5,5.6c5.8,3.1,13,2.5,18.2-1.6c0.4-0.4,0.7-0.9,0.7-1.5c0-1.3-1.1-2.4-2.5-2.3
		c-0.6,0-1.1,0.2-1.5,0.6c-0.9,0.7-2,1.3-3.1,1.6c-1.2,0.4-2.5,0.7-3.8,0.7c-2.7,0.1-5.4-0.9-7.4-2.7c-1.9-1.7-3.1-4.1-3.3-6.6h21.6
		c0.6,0,1.2-0.2,1.7-0.6c0.4-0.5,0.7-1.1,0.7-1.7c0-2.7-0.6-5.4-1.8-7.8C215,19.3,213.3,17.3,211.1,16z M197.1,21
		c1.8-1.7,4.2-2.5,6.6-2.5c2.4-0.1,4.7,0.8,6.4,2.5c1.6,1.6,2.7,3.8,2.9,6.1h-19.1C194.4,24.8,195.5,22.7,197.1,21z">
  </path>
  <path class="st0" d="M240.6,17.3c0-0.2,0.1-0.3,0.1-0.6c0-1-0.7-1.8-1.6-2l0,0c-1.2-0.5-2.5-0.7-3.8-0.6c-3.5-0.1-6.8,1.5-9,4.1
		v-1.3c0.1-0.7-0.2-1.3-0.7-1.8c-0.5-0.5-1.1-0.7-1.8-0.7c-0.7-0.1-1.3,0.2-1.8,0.7c-0.5,0.5-0.7,1.1-0.7,1.8v25.7
		c-0.1,0.7,0.2,1.3,0.7,1.8c0.5,0.5,1.1,0.7,1.8,0.7c0.7,0.1,1.3-0.2,1.8-0.7c0.5-0.5,0.7-1.1,0.7-1.8V26.3
		c-0.1-2.1,0.9-4.1,2.5-5.4c1.8-1.4,4.1-2.2,6.4-2.1c0.4,0,0.9,0,1.3,0.1c0.6,0.1,1.1,0.1,1.7,0.1c0.5,0,1-0.1,1.5-0.3
		C240.1,18.3,240.5,17.8,240.6,17.3z">
  </path>
  <path class="st0" d="M262.2,16c-2.2-1.3-4.7-2-7.3-1.9c-2.7,0-5.3,0.7-7.6,2c-2.2,1.3-4,3.3-5.2,5.6c-1.3,2.5-1.9,5.3-1.9,8.1
		c0,2.8,0.6,5.6,2,8c1.3,2.3,3.2,4.3,5.5,5.6c5.8,3.1,13,2.5,18.2-1.6c0.4-0.4,0.7-0.9,0.7-1.5c0-1.3-1.1-2.4-2.5-2.3
		c-0.6,0-1.1,0.2-1.5,0.6c-0.9,0.7-2,1.3-3.1,1.6c-1.2,0.4-2.5,0.7-3.8,0.7c-2.7,0.1-5.4-0.9-7.4-2.7c-1.9-1.7-3.1-4.1-3.3-6.6h21.6
		c0.6,0,1.2-0.2,1.7-0.6c0.4-0.5,0.7-1.1,0.7-1.7c0-2.7-0.6-5.4-1.8-7.8C266.1,19.3,264.4,17.3,262.2,16z M264.2,27.2h-19.1
		c0.3-2.3,1.4-4.5,3.1-6.1c1.8-1.7,4.2-2.5,6.6-2.5c2.4-0.1,4.7,0.8,6.4,2.5C262.9,22.7,264,24.9,264.2,27.2z">
  </path>
  <path class="st0" d="M282,20c1.5-0.9,3.3-1.4,5.1-1.4c1.5,0,2.9,0.3,4.2,0.9c1.3,0.7,2.5,1.5,3.5,2.6c0.7,1,2.1,1.2,3.1,0.5
		c0.6-0.4,1.1-1.1,1.1-1.8c0-0.5-0.2-1-0.5-1.4c-2.7-3.5-7-5.5-11.4-5.4c-2.7,0-5.3,0.7-7.6,2c-2.2,1.3-4.1,3.3-5.3,5.6
		c-1.3,2.5-1.9,5.2-1.9,8c0,2.8,0.7,5.5,2,7.9c1.3,2.3,3.2,4.3,5.5,5.6c2.4,1.4,5.1,2.1,7.8,2c3.8,0.1,7.4-1.3,10.2-3.8
		c0.4-0.4,0.7-0.9,0.7-1.5c0-0.7-0.3-1.4-0.9-1.8c-1-0.7-2.3-0.7-3.2,0.2c-1.9,1.6-4.3,2.4-6.8,2.3c-1.9,0-3.8-0.5-5.4-1.4
		c-1.6-0.9-2.8-2.3-3.7-3.9c-0.9-1.7-1.3-3.7-1.3-5.6c0-2,0.4-3.9,1.2-5.7C279.3,22.3,280.5,21,282,20z">
  </path>
  <path class="st0" d="M320,40.7L320,40.7c-0.4-0.5-1.1-0.7-1.7-0.7h-1.5c-1.5,0.1-2.9-0.6-3.9-1.7c-1-1.2-1.6-2.7-1.5-4.3V19.8h5.8
		c0.6,0,1.2-0.2,1.7-0.6c0.4-0.4,0.6-1,0.6-1.6c0-0.6-0.2-1.2-0.6-1.6c-0.5-0.4-1.1-0.6-1.7-0.6h-5.8V7.3c0-1.4-1.1-2.5-2.5-2.5
		s-2.5,1.1-2.5,2.5v8.1h-3.2c-0.6,0-1.2,0.2-1.7,0.6c-0.4,0.4-0.6,1-0.6,1.6c0,0.6,0.2,1.2,0.6,1.6c0.5,0.4,1.1,0.6,1.7,0.6h3.2V34
		c0,1.9,0.4,3.9,1.3,5.6c1.8,3.4,5.3,5.4,9.1,5.3h1.1c1.4,0.1,2.6-1,2.7-2.4c0,0,0,0,0-0.1C320.6,41.8,320.4,41.2,320,40.7z">
  </path>
  <path class="st1" d="M83.4,69.9c-3,3.1-8,3.1-11.1,0c-3.1-3-3.1-8,0-11.1c3-3.1,8-3.1,11.1,0c1.5,1.5,2.3,3.5,2.3,5.6
		C85.7,66.5,84.8,68.5,83.4,69.9z M77.9,69.8c1.4,0,2.8-0.5,3.8-1.6c2-2.1,2-5.5,0-7.6c-2-2.1-5.4-2.1-7.4-0.1c0,0,0,0-0.1,0.1
		c-2,2.1-2,5.5,0,7.6C75.1,69.3,76.4,69.8,77.9,69.8L77.9,69.8z">
  </path>
  <path class="st1" d="M88,72V61.3h2.3v1.5c0.7-1.1,1.9-1.7,3.2-1.7c1.1-0.1,2.2,0.4,2.9,1.2c0.8,0.9,1.2,2,1.1,3.2V72h-2.3v-6
		c0-0.7-0.2-1.4-0.6-2c-0.4-0.5-1-0.7-1.6-0.7c-0.8,0-1.5,0.3-2,0.9c-0.5,0.7-0.8,1.7-0.8,2.6V72L88,72z">
  </path>
  <path class="st1" d="M100.6,72V56h2.3V72L100.6,72z">
  </path>
  <path class="st1" d="M107.2,59c-0.4,0-0.8-0.2-1.1-0.5c-0.6-0.6-0.6-1.5-0.1-2.1c0,0,0,0,0.1-0.1c0.3-0.3,0.7-0.5,1.1-0.5
		c0.4,0,0.8,0.2,1.1,0.5c0.6,0.6,0.6,1.6,0,2.2C108.1,58.9,107.7,59,107.2,59z M106.1,72V61.3h2.3V72L106.1,72z">
  </path>
  <path class="st1" d="M111.6,72V61.3h2.3v1.5c0.7-1.1,1.9-1.7,3.2-1.7c1.1-0.1,2.2,0.4,2.9,1.2c0.8,0.9,1.2,2,1.1,3.2V72h-2.3v-6
		c0-0.7-0.2-1.4-0.6-2c-0.4-0.5-1-0.7-1.6-0.7c-0.8,0-1.5,0.3-2,0.9c-0.5,0.7-0.8,1.7-0.8,2.6V72L111.6,72z">
  </path>
  <path class="st1" d="M128.9,72.2c-1.5,0.1-2.9-0.5-4-1.6c-2.2-2.2-2.2-5.7,0-7.8c1.1-1.1,2.5-1.7,4-1.6c1.4-0.1,2.7,0.4,3.7,1.4
		c1,1,1.5,2.4,1.5,3.9c0,0.3,0,0.5,0,0.8h-8.3c0,0.8,0.4,1.6,1,2.1c1.6,1.3,3.9,1,5.1-0.6c0.1-0.1,0.1-0.2,0.2-0.2l1.8,1.3
		C132.8,71.4,130.9,72.3,128.9,72.2z M125.8,65.5h5.9c-0.1-0.7-0.5-1.3-1-1.7c-0.5-0.4-1.2-0.6-1.9-0.6c-0.7,0-1.4,0.2-2,0.6
		C126.3,64.1,125.9,64.8,125.8,65.5z">
  </path>
  <path class="st1" d="M150.2,70.6c-2.2,2.1-5.7,2.1-7.8,0c-2.1-2.2-2.1-5.7,0-7.8c2.2-2.1,5.6-2.1,7.8,0
		C152.3,64.9,152.3,68.4,150.2,70.6z M146.2,70c0.9,0,1.7-0.4,2.3-1c1.2-1.4,1.2-3.4,0-4.8c-1.2-1.3-3.2-1.3-4.5-0.1
		c0,0,0,0-0.1,0.1c-1.2,1.4-1.2,3.4,0,4.8C144.5,69.6,145.3,70,146.2,70z">
  </path>
  <path class="st1" d="M154.1,72V61.3h2.3v1.9c0.2-0.6,0.6-1.1,1.1-1.4c0.5-0.4,1.1-0.6,1.7-0.6c0.3,0,0.6,0,0.9,0.1v2.4
		c-0.4-0.1-0.8-0.2-1.2-0.2c-0.7,0-1.4,0.3-1.8,0.9c-0.5,0.7-0.8,1.5-0.7,2.4V72L154.1,72z">
  </path>
  <path class="st1" d="M166.2,72.2c-1.4,0-2.7-0.6-3.6-1.6c-2-2.2-2-5.6,0-7.8c0.9-1,2.2-1.6,3.6-1.6c0.7,0,1.4,0.2,2,0.5
		c0.5,0.3,1,0.7,1.4,1.2V56h2.3V72h-2.3v-1.4c-0.4,0.5-0.9,0.9-1.4,1.2C167.6,72,166.9,72.2,166.2,72.2z M164.3,69.1
		c1.2,1.3,3.2,1.3,4.4,0.1c0,0,0.1-0.1,0.1-0.1c1.2-1.4,1.2-3.4,0-4.8c-1.2-1.3-3.2-1.3-4.4-0.1c0,0-0.1,0.1-0.1,0.1
		C163.1,65.6,163.1,67.7,164.3,69.1z">
  </path>
  <path class="st1" d="M179.9,72.2c-1.5,0.1-2.9-0.5-4-1.6c-2.2-2.2-2.2-5.7,0-7.8c1.1-1.1,2.5-1.7,4-1.6c2.7-0.1,5,2,5.1,4.7
		c0,0.2,0,0.4,0,0.6c0,0.3,0,0.5,0,0.8h-8.3c0,0.8,0.4,1.6,1,2.1c1.6,1.3,3.9,1,5.1-0.6c0.1-0.1,0.1-0.2,0.2-0.2l1.8,1.3
		C183.7,71.4,181.8,72.3,179.9,72.2z M176.7,65.5h5.9c-0.1-0.7-0.5-1.3-1-1.7c-0.5-0.4-1.2-0.6-1.9-0.6c-0.7,0-1.4,0.2-2,0.6
		C177.2,64.1,176.8,64.8,176.7,65.5z">
  </path>
  <path class="st1" d="M187.4,72V61.3h2.3v1.9c0.2-0.6,0.6-1.1,1.1-1.4c0.5-0.4,1.1-0.6,1.7-0.6c0.3,0,0.6,0,0.9,0.1v2.4
		c-0.4-0.1-0.8-0.2-1.2-0.2c-0.7,0-1.4,0.3-1.8,0.9c-0.5,0.7-0.8,1.5-0.8,2.4V72L187.4,72z">
  </path>
  <path class="st1" d="M198.6,72.2c-0.9,0-1.8-0.2-2.6-0.6c-0.7-0.4-1.3-1-1.7-1.7l1.7-1.2c0.2,0.5,0.6,0.8,1,1.1
		c0.5,0.3,1,0.4,1.5,0.4c0.4,0,0.7-0.1,1-0.3c0.3-0.2,0.4-0.5,0.4-0.8c0-0.3-0.1-0.6-0.4-0.8c-0.4-0.3-0.8-0.5-1.3-0.6l-0.9-0.2
		c-1.9-0.5-2.8-1.6-2.8-3.2c0-0.9,0.4-1.7,1.1-2.2c0.8-0.6,1.7-0.9,2.7-0.8c1.4-0.1,2.8,0.6,3.6,1.8l-1.6,1.2
		c-0.4-0.7-1.2-1.1-2-1.1c-0.4,0-0.7,0.1-1,0.3c-0.3,0.1-0.4,0.4-0.4,0.7c0,0.3,0.1,0.5,0.3,0.7c0.3,0.3,0.6,0.4,1,0.5l1.1,0.3
		c0.8,0.2,1.6,0.6,2.2,1.2c0.5,0.5,0.8,1.3,0.8,2c0,0.9-0.4,1.8-1.1,2.4C200.5,71.8,199.6,72.2,198.6,72.2z">
  </path>
  <path class="st1" d="M206.1,72.1c-0.5,0-0.9-0.2-1.3-0.6c-0.7-0.7-0.7-1.9,0-2.6c0,0,0,0,0,0c0.3-0.4,0.8-0.6,1.3-0.6
		c1,0.1,1.8,1,1.7,2C207.7,71.3,207,72.1,206.1,72.1z">
  </path>
  <path class="st0" d="M219.9,72.2c-1.1,0-2.2-0.2-3.2-0.7c-0.9-0.4-1.6-1.1-2.1-2l2-1.6c0.7,1.2,2.1,2,3.5,1.9
		c0.6,0,1.2-0.2,1.8-0.5c0.4-0.3,0.7-0.8,0.7-1.3c0-1-0.7-1.8-2.1-2.3l-1.7-0.6c-1-0.3-2-0.9-2.7-1.7c-1.3-1.7-1.1-4.2,0.5-5.6
		c1-0.8,2.2-1.2,3.5-1.2c1.8-0.1,3.4,0.7,4.6,2.1l-1.7,1.7c-0.7-0.9-1.7-1.4-2.9-1.4c-0.6,0-1.2,0.1-1.7,0.5
		c-0.4,0.3-0.7,0.8-0.7,1.3c0,0.5,0.2,0.9,0.5,1.2c0.5,0.4,1.1,0.7,1.8,0.9l1.5,0.6c1,0.3,1.9,0.9,2.6,1.7c0.6,0.8,0.9,1.7,0.9,2.7
		c0,1.2-0.5,2.4-1.4,3.2C222.5,71.8,221.2,72.3,219.9,72.2z">
  </path>
  <path class="st0" d="M228.5,59c-0.4,0-0.8-0.2-1.1-0.5c-0.6-0.6-0.6-1.5-0.1-2.1c0,0,0,0,0.1-0.1c0.3-0.3,0.7-0.5,1.1-0.5
		c0.4,0,0.8,0.2,1.1,0.5c0.6,0.6,0.6,1.6,0,2.2C229.3,58.9,228.9,59,228.5,59z M227.3,72V61.3h2.3V72L227.3,72z">
  </path>
  <path class="st0" d="M246.3,72v-6c0-0.7-0.1-1.4-0.5-2c-0.3-0.5-0.8-0.7-1.4-0.7c-0.7,0-1.4,0.3-1.8,0.9c-0.5,0.7-0.7,1.6-0.7,2.4
		v5.4h-2.3v-6c0-0.7-0.1-1.4-0.5-2c-0.3-0.5-0.8-0.7-1.4-0.7c-0.7,0-1.4,0.3-1.9,0.9c-0.5,0.8-0.7,1.7-0.7,2.6v5.2h-2.3V61.3h2.3
		v1.5c1.1-1.7,3.3-2.2,5-1.1c0.6,0.4,1,0.9,1.3,1.5c0.3-0.6,0.8-1.2,1.4-1.6c0.6-0.4,1.3-0.6,2-0.6c1.1-0.1,2.1,0.4,2.8,1.2
		c0.7,0.9,1.1,2.1,1,3.3V72L246.3,72z">
  </path>
  <path class="st0" d="M254,76.4h-2.3v-15h2.3v1.4c0.4-0.5,0.9-0.9,1.4-1.2c0.6-0.3,1.3-0.5,2-0.5c1.4,0,2.7,0.6,3.6,1.6
		c2,2.2,2,5.6,0,7.8c-0.9,1-2.2,1.6-3.6,1.6c-0.7,0-1.4-0.2-2-0.5c-0.6-0.3-1-0.7-1.4-1.2L254,76.4z M257,70c0.9,0,1.7-0.4,2.3-1
		c1.2-1.4,1.2-3.4,0-4.8c-1.2-1.3-3.2-1.3-4.4-0.1c0,0-0.1,0.1-0.1,0.1c-1.2,1.4-1.2,3.4,0,4.8C255.2,69.7,256.1,70.1,257,70L257,70
		z">
  </path>
  <path class="st0" d="M264.9,72V56h2.3V72L264.9,72z">
  </path>
  <path class="st0" d="M271.5,59c-0.4,0-0.8-0.2-1.1-0.5c-0.6-0.6-0.6-1.6,0-2.2c0,0,0,0,0,0c0.3-0.3,0.7-0.5,1.1-0.5
		c0.4,0,0.8,0.2,1.1,0.5c0.6,0.6,0.6,1.6,0,2.2C272.3,58.9,271.9,59,271.5,59z M270.3,72V61.3h2.3V72L270.3,72z">
  </path>
  <path class="st0" d="M276.8,72v-8.5h-2.2v-2.1h2.2v-1.8c-0.1-1,0.3-2,1-2.7c0.7-0.7,1.6-1,2.6-1c0.6,0,1.2,0.1,1.7,0.3v2.1
		c-0.4-0.2-0.8-0.2-1.2-0.2c-0.8-0.2-1.6,0.4-1.8,1.2c0,0.2,0,0.4,0,0.6v1.5h3v2.1h-3v8.5L276.8,72z M285.2,59
		c-0.4,0-0.8-0.2-1.1-0.5c-0.6-0.6-0.6-1.6,0-2.2c0,0,0,0,0,0c0.3-0.3,0.7-0.5,1.1-0.5c0.9,0,1.6,0.7,1.5,1.6c0,0.4-0.2,0.8-0.4,1.1
		C286,58.9,285.6,59,285.2,59z M284,72V61.3h2.3V72H284z">
  </path>
  <path class="st0" d="M294.3,72.2c-1.5,0.1-2.9-0.5-4-1.6c-2.2-2.2-2.2-5.7,0-7.8c1.1-1.1,2.5-1.7,4-1.6c2.7-0.1,5,2,5.1,4.7
		c0,0.2,0,0.4,0,0.6c0,0.3,0,0.5,0,0.8h-8.3c0,0.8,0.4,1.6,1,2.1c1.6,1.3,3.9,1,5.1-0.6c0.1-0.1,0.1-0.2,0.2-0.2l1.8,1.3
		C298.1,71.4,296.2,72.3,294.3,72.2z M291.2,65.5h5.9c-0.1-0.7-0.5-1.3-1-1.7c-0.5-0.4-1.2-0.6-1.9-0.6c-0.7,0-1.4,0.2-2,0.6
		C291.6,64.1,291.3,64.8,291.2,65.5z">
  </path>
  <path class="st0" d="M306.1,72.2c-1.4,0-2.7-0.6-3.6-1.6c-2-2.2-2-5.6,0-7.8c0.9-1,2.3-1.6,3.6-1.6c0.7,0,1.4,0.2,2,0.5
		c0.6,0.3,1,0.7,1.4,1.2V56h2.3V72h-2.4v-1.4c-0.4,0.5-0.8,0.9-1.4,1.2C307.5,72,306.8,72.2,306.1,72.2z M304.3,69.1
		c1.2,1.3,3.2,1.3,4.4,0.1c0,0,0.1-0.1,0.1-0.1c1.2-1.4,1.2-3.4,0-4.8c-1.2-1.3-3.2-1.3-4.4-0.1c0,0-0.1,0.1-0.1,0.1
		C303.1,65.6,303.1,67.7,304.3,69.1z">
  </path>
  <path class="st0" d="M316.3,72.1c-0.5,0-0.9-0.2-1.3-0.6c-0.7-0.7-0.7-1.9,0-2.6c0,0,0,0,0,0c0.3-0.4,0.8-0.6,1.3-0.6
		c1,0.1,1.8,1,1.7,2C317.9,71.3,317.2,72.1,316.3,72.1z">
  </path>
 </g>
</svg>