<?xml version="1.0" encoding="UTF-8"?>
<svg id="Capa_1" data-name="Capa 1" xmlns="http://www.w3.org/2000/svg" viewBox="0 0 1000 1000">
  <path d="M792.54,598.91c-110.8,110.79-290.94,110.9-401.59.27-110.79-110.8-110.79-291.07,0-401.88,55.27-55.27,127.9-82.9,200.55-82.9,25.77,0,80.63,3.49,138.96,36.13,16.98,9.5,86.12,50.51,122.81,136.9,7.64,17.98,22.35,57.89,22.35,110.82,0,75.83-29.5,147.09-83.08,200.66M378.33,695.72l-64.14-64.13,37.33-37.33c6.56,8.03,13.57,15.82,21.05,23.3,14.36,14.36,29.85,26.89,46.1,37.83l-40.33,40.33ZM378.01,740.4l-19.19,19.19c-2.27,2.27-5.96,2.27-8.22,0l-100.27-100.28c-2.27-2.27-2.27-5.95,0-8.22l19.18-19.19c1.14-1.13,2.62-1.7,4.11-1.7s2.98.57,4.11,1.7l100.28,100.28c2.27,2.27,2.27,5.95,0,8.22M245.46,857.88c-2.16,2.87-4.68,5.75-7.2,8.27-12.42,12.41-29.03,19.31-46.79,19.43h-.44c-17.77,0-34.43-6.89-46.97-19.43-13.92-13.92-21.01-33.13-19.46-52.69,1.55-19.52,11.52-37.3,27.89-49.19l91.83-74.18,75.69,75.69-74.56,92.1ZM810.93,179.2c-120.93-120.93-317.58-121.05-438.36-.27-107.05,107.06-119.14,273.46-36.64,394.17l-40.15,40.15c-12.43-12.09-32.35-12.02-44.64.28l-19.19,19.19c-10.31,10.31-11.92,25.94-5.09,38.06l-90.15,72.85c-22.02,15.95-35.88,40.66-38.02,67.77-2.16,27.16,7.69,53.83,27,73.13,17.46,17.46,40.64,27.05,65.34,27.05h.62c24.64-.16,47.72-9.77,64.99-27.03,3.37-3.36,6.73-7.21,9.33-10.68l73.42-90.67c4.77,2.63,10.02,4.09,15.33,4.09,8.15,0,16.29-3.1,22.5-9.3l19.19-19.19c12.3-12.3,12.37-32.22.28-44.64l44.88-44.89c46.49,25.72,98.15,38.82,149.94,38.82,79.43,0,158.91-30.26,219.42-90.77,58.48-58.48,90.69-136.27,90.69-219.05,0-82.78-32.21-160.57-90.69-219.05"/>
  <path d="M743.53,549.89c-40.62,40.62-94.6,63-152.01,63s-111.1-22.28-151.54-62.73c-36.24-36.24-56.72-82.31-61.61-129.7h48.43l51.59,82.75c2.39,3.84,6.57,6.12,11.03,6.12.49,0,.99-.02,1.49-.08,4.98-.58,9.2-3.97,10.82-8.73l32.96-96.83,28.84,28.36c3.13,3.09,7.63,4.36,11.91,3.43,4.3-.95,7.82-3.99,9.37-8.11l31.05-82.4,25.21,117.98c.97,4.54,4.3,8.23,8.73,9.65,4.45,1.44,9.28.38,12.73-2.75l54.39-49.4h88.15c-4.99,48.93-26.37,94.26-61.54,129.43M439.98,246.33c40.45-40.45,94.26-62.72,151.53-62.72s111.39,22.38,152.02,63c39.53,39.54,61.55,91.93,62.51,147.85h-94.14c-3.23,0-6.35,1.2-8.74,3.38l-41.38,37.58-29.74-139.2c-1.2-5.64-5.99-9.82-11.74-10.25-5.69-.36-11.11,2.98-13.13,8.38l-39.64,105.16-29.36-28.87c-3.19-3.15-7.78-4.39-12.11-3.38-4.35,1.03-7.87,4.23-9.31,8.46l-30.8,90.47-40.9-65.61c-2.37-3.81-6.54-6.12-11.03-6.12h-56.68c.94-53.75,21.72-107.21,62.64-148.13M761.92,228.22c-45.54-45.54-106.05-70.62-170.41-70.62s-124.56,24.98-169.92,70.34c-93.9,93.91-93.9,246.69,0,340.59,45.35,45.36,105.7,70.35,169.93,70.35s124.86-25.08,170.39-70.62c45.35-45.35,70.32-105.72,70.32-170.02.01-64.3-24.97-124.68-70.31-170.03"/>
</svg>