<?xml version="1.0" encoding="UTF-8"?>
<svg id="Capa_1" xmlns="http://www.w3.org/2000/svg" version="1.1" viewBox="0 0 1000 1000">
  <!-- Generator: Adobe Illustrator 30.3.0, SVG Export Plug-In . SVG Version: 2.1.3 Build 182)  -->
  <path d="M417.17,191.54c-5.06,0-9.16-4.1-9.16-9.17s4.1-9.16,9.16-9.16,9.17,4.1,9.17,9.16-4.1,9.17-9.17,9.17M417.17,153.91c-15.7,0-28.46,12.76-28.46,28.46s12.75,28.46,28.46,28.46,28.46-12.76,28.46-28.46-12.76-28.46-28.46-28.46M249.07,802.91h-61.74v-61.74h61.74v2.03l-26.65,26.65-19.1-19.1-13.65,13.65,32.75,32.75,26.65-26.65v32.41ZM168.04,721.88v100.33h100.33v-71l31.06-31.06-13.65-13.65-17.42,17.41v-2.03h-100.33ZM249.07,670.99h-61.74v-61.74h61.74v2.03l-26.65,26.65-19.1-19.1-13.65,13.65,32.75,32.75,26.65-26.65v32.42ZM285.78,574.57l-17.42,17.42v-2.03h-100.33v100.33h100.33v-71l31.06-31.06-13.65-13.65ZM249.07,539.07h-61.74v-61.74h61.74v2.02l-26.65,26.65-19.1-19.1-13.65,13.65,32.75,32.75,26.65-26.65v32.41ZM285.78,442.65l-17.42,17.41v-2.02h-100.33v100.33h100.33v-71l31.06-31.06-13.65-13.65ZM249.07,407.15h-61.74v-61.74h61.74v2.03l-26.65,26.65-19.1-19.1-13.65,13.65,32.75,32.75,26.65-26.65v32.42ZM285.78,310.72l-17.42,17.42v-2.03h-100.33v100.33h100.33v-71l31.06-31.06-13.65-13.65ZM679.57,718.02c-40.56,0-73.56-32.99-73.56-73.56s32.99-73.56,73.56-73.56,73.56,33,73.56,73.56-32.99,73.56-73.56,73.56M745.21,578.82c-8.52-8.52-18.45-15.22-29.52-19.9-11.46-4.85-23.61-7.31-36.15-7.31s-24.69,2.46-36.15,7.31c-11.05,4.68-20.98,11.36-29.52,19.9-8.54,8.54-15.22,18.45-19.89,29.52-4.85,11.45-7.31,23.61-7.31,36.15s2.46,24.69,7.31,36.15c4.68,11.05,11.36,20.98,19.89,29.52,8.54,8.54,18.45,15.22,29.52,19.9,11.46,4.84,23.61,7.31,36.15,7.31s24.69-2.46,36.15-7.31c11.05-4.68,20.98-11.36,29.52-19.9,8.54-8.54,15.22-18.45,19.89-29.52,4.85-11.45,7.31-23.61,7.31-36.15s-2.46-24.7-7.31-36.15c-4.68-11.07-11.36-21.01-19.89-29.52M814.77,750.24l-12.42,14.32-32.2-15.53-34.15,21.95.75,35.74-18.21,5.36-18.69-30.46h-40.59l-18.69,30.46-18.21-5.36.75-35.74-34.15-21.95-32.2,15.53-12.42-14.32,19.94-29.67-16.85-36.92-35.48-4.34-2.7-18.79,32.85-14.13,5.79-40.18-27.49-22.84,7.89-17.25,35.26,5.84,26.58-30.68-10.81-34.08,15.97-10.25,26.5,23.97,38.95-11.43,9.33-34.51h18.98l9.34,34.51,38.95,11.43,26.5-23.97,15.96,10.25-10.8,34.08,26.58,30.68,35.26-5.84,7.89,17.25-27.49,22.84,5.79,40.18,32.82,14.16-2.7,18.79-35.48,4.34-16.86,36.92,19.97,29.64ZM554.16,249.42h-274.22v-61.74h90.39l.05-9.6c.09-25.68,21.1-46.59,46.79-46.59s46.67,20.91,46.79,46.59l.04,9.6h90.15v61.74ZM864.14,696.7l6.9-47.99-36.47-15.73-2.7-18.79,30.55-25.37-20.14-44.11-39.16,6.49-12.45-14.35,11.99-37.87-40.78-26.24-29.45,26.63-18.23-5.36-10.37-38.32h-14.62v-245.35h-115.76v-41.97h-90.92c-2.07-13.94-8.54-26.79-18.72-36.92-12.47-12.42-29.04-19.27-46.64-19.27s-34.17,6.85-46.64,19.27c-10.18,10.13-16.64,22.99-18.72,36.92h-91.16v41.97h-131.68v677.46h560.25v-86.34h-19.29v67.05H148.26V229.64h112.39v39.07h312.8v-39.07h96.47v226.05h-14.59l-10.37,38.32-18.23,5.36-29.47-26.63-40.81,26.22,11.98,37.86-12.44,14.35-39.17-6.49-20.14,44.11,30.56,25.37-2.7,18.79-36.47,15.73,6.9,47.99,39.41,4.82,7.89,17.27-22.17,32.95,31.77,36.65,35.76-17.24,15.96,10.28-.84,39.7,46.55,13.67,20.76-33.86h19.01l20.76,33.86,46.55-13.67-.84-39.7,15.96-10.28,35.77,17.24,31.76-36.65-22.16-32.95,7.89-17.27,39.38-4.8Z"/>
  <rect x="323.59" y="360.84" width="298.09" height="19.29"/>
  <rect x="323.59" y="489.63" width="175.09" height="19.29"/>
  <rect x="323.59" y="630.47" width="112.87" height="19.29"/>
  <rect x="323.59" y="762.4" width="149.05" height="19.29"/>
</svg>