<?xml version="1.0" encoding="UTF-8"?>
<svg id="Capa_1" data-name="Capa 1" xmlns="http://www.w3.org/2000/svg" viewBox="0 0 1000 1000">
  <path d="M455.79,690.73l18.61-148.86c0-3.99-1.33-7.97-2.66-10.63-2.66-2.66-6.64-3.99-10.63-3.99h-42.53l128.92-216.64-19.93,148.86c0,3.98,1.33,7.97,2.66,10.63,2.66,2.66,6.64,3.98,9.3,3.98h42.53l-126.27,216.65ZM619.27,454.15c-2.66-3.98-6.64-6.64-11.96-6.64h-51.84l25.26-198.04c1.33-6.65-2.66-11.96-9.31-14.62-5.32-2.65-11.96,0-15.95,5.32l-172.78,292.41c-2.66,3.99-2.66,9.31,0,13.29,2.66,3.99,6.65,6.65,11.96,6.65h51.83l-25.26,199.37c-1.33,6.64,2.66,11.96,9.31,14.62,1.33,0,2.66,1.33,3.98,1.33,3.99,0,9.31-2.66,11.96-6.65l172.78-292.41c1.33-5.32,1.33-10.63,0-14.62M613.95,289.34c-6.64-3.99-14.62-1.33-18.61,5.32-3.98,6.64-1.33,14.62,5.32,18.61,70.44,37.21,112.97,108.98,112.97,187.4,0,116.96-95.69,212.66-212.66,212.66-7.97,0-13.29,5.32-13.29,13.29s5.32,13.29,13.29,13.29c131.58,0,239.24-107.66,239.24-239.24,0-89.05-47.85-168.79-126.27-211.33M873.13,541.87l-47.84,6.64c-5.32,1.33-10.63,5.32-10.63,10.63-7.97,43.86-25.26,83.73-50.51,120.95-2.66,5.32-2.66,10.63,0,15.95l29.24,38.54-58.48,58.48-38.54-29.24c-3.99-3.98-10.63-3.98-15.95,0-35.89,25.26-77.09,41.2-120.95,50.51-5.32,1.33-9.31,5.32-10.63,10.63l-6.65,47.85h-83.73l-6.64-47.85c-1.33-5.32-5.32-10.63-10.63-10.63-43.86-7.97-83.73-25.25-120.95-50.51-5.32-2.66-10.63-2.66-15.95,0l-37.22,29.24-58.48-58.48,29.24-38.54c3.99-3.99,3.99-10.63,0-15.95-25.25-37.22-41.2-77.09-50.51-120.95-1.33-5.32-5.32-9.3-10.63-10.63l-47.84-6.64v-83.73l47.84-6.65c5.32,0,9.31-3.98,10.63-9.3,7.97-43.86,25.26-83.74,50.51-120.95,2.66-5.32,2.66-10.63,0-15.95l-29.24-38.55,58.48-58.48,38.54,29.24c3.99,3.99,10.63,3.99,15.95,0,37.22-25.25,77.09-41.2,120.95-50.5,5.32-1.33,9.31-5.32,10.63-10.63l6.65-47.85h83.73l6.64,47.85c0,5.32,3.99,9.3,9.31,10.63,43.86,7.97,83.73,25.25,120.95,50.5,5.32,2.66,10.63,2.66,15.95,0l38.54-29.24,58.48,58.48-29.24,38.55c-3.99,3.98-3.99,10.63,0,15.95,25.25,37.21,41.2,77.08,50.51,120.95,1.33,5.32,5.32,9.3,10.63,10.63l47.84,6.64v82.41ZM887.75,434.21l-49.18-6.65c-9.31-39.87-23.92-78.42-46.52-112.97l30.57-39.87c3.98-5.32,3.98-13.29-1.33-17.28l-75.76-75.76c-5.32-5.32-11.96-5.32-17.28-1.33l-39.87,30.57c-34.56-22.6-73.1-38.55-112.97-46.52l-7.97-50.5c-1.33-6.65-6.65-11.96-13.29-11.96h-106.33c-6.64,0-11.96,5.32-13.29,11.96l-6.64,49.18c-39.87,9.3-78.42,23.92-112.97,46.52l-39.87-30.57c-5.32-3.99-13.29-3.99-17.28,1.33l-75.76,75.76c-5.32,5.32-5.32,11.96-1.33,17.28l30.57,39.87c-22.59,34.55-38.54,73.1-46.52,112.97l-50.51,7.97c-6.64,1.33-11.96,6.64-11.96,13.29v106.33c0,6.65,5.32,11.96,11.96,13.29l49.18,6.64c9.3,39.87,23.92,78.42,46.52,112.98l-30.57,39.87c-3.98,5.32-3.98,13.29,1.33,17.28l75.76,75.76c5.32,5.32,11.96,5.32,17.28,1.33l39.87-30.57c34.56,22.59,73.11,38.54,112.97,46.52l6.65,49.18c1.33,6.64,6.64,11.96,13.29,11.96h106.33c6.65,0,11.96-5.32,13.29-11.96l6.65-49.18c39.87-9.3,78.42-23.92,112.97-46.52l39.87,30.57c5.32,3.99,13.29,3.99,17.28-1.33l75.76-75.76c5.32-5.32,5.32-11.96,1.33-17.28l-30.57-39.87c22.6-34.56,38.55-73.1,46.52-112.98l49.18-6.64c6.64-1.33,11.96-6.64,11.96-13.29v-106.33c2.66-6.65-2.66-11.96-9.3-13.29M401.3,688.07c-70.44-37.22-112.97-108.99-112.97-187.41,0-116.96,95.7-212.66,212.66-212.66,7.97,0,13.29-5.32,13.29-13.29s-5.32-13.29-13.29-13.29c-131.58,0-239.24,107.66-239.24,239.24,0,89.05,49.18,168.8,126.27,211.33,2.66,1.33,3.99,1.33,6.65,1.33,5.32,0,9.3-2.66,11.96-6.64,2.66-6.65,1.33-14.62-5.32-18.61"/>
</svg>