<?xml version="1.0" encoding="UTF-8"?>
<svg id="Layer_1" xmlns="http://www.w3.org/2000/svg" version="1.1" viewBox="0 0 1080 1080">
  <!-- Generator: Adobe Illustrator 30.4.0, SVG Export Plug-In . SVG Version: 2.1.4 Build 226)  -->
  <defs>
    <style>
      .st0 {
        fill: #1d1818;
      }
    </style>
  </defs>
  <rect class="st0" x="105.34" y="862.87" width="869.32" height="28.04"/>
  <rect class="st0" x="105.34" y="918.95" width="869.32" height="28.04"/>
  <path class="st0" d="M913.5,198.91l-23.15-18.65,29.23-11.08-6.08,29.73ZM715.26,414.18c-7.74,0-14.02-6.28-14.02-14.02s6.27-14.02,14.02-14.02,14.02,6.27,14.02,14.02c0,7.74-6.28,14.01-14.02,14.02M547.01,358.1c-7.74,0-14.02-6.28-14.02-14.02s6.27-14.02,14.02-14.02,14.02,6.28,14.02,14.02c0,7.74-6.28,14.01-14.02,14.02M947.51,136.35c-3.89-3.31-9.28-4.24-14.06-2.43l-75.93,28.79c-4.7,1.78-8.09,5.94-8.88,10.9-.79,4.97,1.14,9.97,5.05,13.13l18.07,14.55-144.04,158.9c-15.58-5.21-32.77-.52-43.54,11.88l-95.45-31.39c-1.32-16.53-12.26-30.73-27.9-36.23-15.64-5.51-33.05-1.28-44.44,10.78-11.38,12.06-14.6,29.68-8.2,44.98l-104.09,99.93,19.42,20.22,103.61-99.47c6.09,3.38,12.93,5.18,19.89,5.23,13.85-.01,26.8-6.85,34.63-18.27l91.78,30.18c-.04.71-.21,1.39-.21,2.11-.04,18.02,11.4,34.05,28.44,39.88,17.04,5.83,35.91.17,46.92-14.09,11.01-14.26,11.71-33.94,1.76-48.95l143.31-158.09,20.2,16.27c3.81,3.07,8.94,3.93,13.54,2.27,4.6-1.66,8.01-5.59,8.98-10.39l15.8-77.23c1.02-5.01-.76-10.18-4.65-13.49M918.57,806.78h-70.11v-448.68h70.11v448.68ZM834.45,330.05c-7.74,0-14.02,6.28-14.02,14.02v476.73c0,7.74,6.28,14.02,14.02,14.02h98.15c7.74,0,14.02-6.27,14.02-14.02v-476.73c0-7.74-6.27-14.02-14.02-14.02h-98.15ZM750.32,806.78h-70.11v-294.45h70.11v294.45ZM666.19,484.29c-7.74,0-14.02,6.27-14.02,14.02v322.49c0,7.74,6.28,14.02,14.02,14.02h98.15c7.74,0,14.02-6.27,14.02-14.02v-322.49c0-7.74-6.27-14.02-14.02-14.02h-98.15ZM582.06,806.78h-70.11v-322.49h70.11v322.49ZM497.94,456.25c-7.74,0-14.02,6.27-14.02,14.02v350.54c0,7.74,6.28,14.02,14.02,14.02h98.15c7.74,0,14.02-6.27,14.02-14.02v-350.54c0-7.74-6.28-14.02-14.02-14.02h-98.15ZM287.62,729.66c-27.1,0-49.07-21.97-49.07-49.07s21.97-49.08,49.07-49.08,49.08,21.97,49.08,49.08c-.03,27.09-21.99,49.04-49.08,49.07M287.62,603.47c-42.59,0-77.11,34.53-77.11,77.12s34.52,77.12,77.11,77.12,77.12-34.53,77.12-77.12c-.05-42.57-34.55-77.07-77.12-77.12M383.53,711.04c-1.73,5.43-3.92,10.71-6.55,15.77-5.54,10.33-3.71,23.08,4.52,31.43l3.47,3.46-16.23,16.22-3.46-3.46c-8.34-8.24-21.09-10.08-31.43-4.52-5.06,2.63-10.34,4.82-15.78,6.55-11.2,3.41-18.89,13.7-18.98,25.4v4.88h-22.95v-4.88c-.08-11.7-7.78-22-18.97-25.4-5.43-1.73-10.71-3.92-15.77-6.55-10.34-5.54-23.08-3.71-31.44,4.52l-3.46,3.46-16.22-16.22,3.46-3.46c8.23-8.35,10.07-21.09,4.52-31.43-2.63-5.06-4.82-10.34-6.55-15.78-3.4-11.2-13.69-18.89-25.4-18.98h-4.88v-22.95h4.88c11.7-.09,22-7.78,25.4-18.98,1.73-5.43,3.92-10.71,6.55-15.77,5.54-10.33,3.71-23.08-4.52-31.43l-3.46-3.46,16.22-16.22,3.46,3.46c8.35,8.23,21.09,10.06,31.43,4.52,5.06-2.63,10.34-4.82,15.78-6.55,11.2-3.41,18.89-13.7,18.98-25.41v-4.87h22.95v4.87c.09,11.71,7.78,22,18.98,25.41,5.43,1.73,10.71,3.92,15.77,6.55,10.33,5.54,23.08,3.7,31.43-4.52l3.46-3.46,16.23,16.22-3.47,3.46c-8.23,8.35-10.06,21.09-4.52,31.43,2.63,5.06,4.82,10.34,6.55,15.78,3.41,11.2,13.7,18.89,25.41,18.98h4.87v22.95h-4.87c-11.71.09-22,7.78-25.41,18.98M427.83,720.11c7.74,0,14.02-6.28,14.02-14.02v-50.99c0-7.74-6.28-14.02-14.02-14.02h-17.76c-2.13-6.58-4.78-12.97-7.94-19.12l12.58-12.58c2.63-2.63,4.11-6.2,4.11-9.91s-1.48-7.28-4.11-9.92l-36.04-36.04c-2.63-2.63-6.2-4.12-9.92-4.12h0c-3.72,0-7.28,1.48-9.91,4.11l-12.58,12.58c-6.15-3.16-12.54-5.82-19.12-7.95v-17.76c0-7.74-6.27-14.02-14.02-14.02h-50.99c-7.74,0-14.02,6.27-14.02,14.02v17.76c-6.58,2.13-12.97,4.78-19.12,7.94l-12.58-12.58c-2.63-2.63-6.19-4.11-9.91-4.11s-7.28,1.48-9.91,4.11l-36.05,36.05c-2.63,2.63-4.11,6.2-4.11,9.92s1.47,7.28,4.11,9.91l12.58,12.58c-3.16,6.15-5.81,12.54-7.95,19.12h-17.76c-7.74,0-14.02,6.27-14.02,14.02v50.99c0,7.74,6.27,14.02,14.02,14.02h17.76c2.13,6.58,4.78,12.97,7.95,19.12l-12.58,12.58c-2.63,2.63-4.11,6.2-4.11,9.91s1.47,7.28,4.11,9.91l36.05,36.05c2.63,2.63,6.2,4.11,9.91,4.11s7.28-1.48,9.91-4.11l12.58-12.58c6.15,3.16,12.54,5.82,19.12,7.95v17.76c0,7.74,6.28,14.02,14.02,14.02h50.99c7.74,0,14.02-6.27,14.02-14.02v-17.76c6.58-2.13,12.97-4.78,19.12-7.95l12.58,12.58c2.63,2.63,6.2,4.11,9.91,4.11s7.29-1.48,9.92-4.11l36.05-36.05c2.63-2.63,4.11-6.2,4.11-9.91s-1.48-7.28-4.11-9.91l-12.58-12.58c3.16-6.15,5.81-12.54,7.94-19.12h17.76Z"/>
</svg>