<svg width="256" height="256" viewBox="0 0 256 256" fill="none" xmlns="http://www.w3.org/2000/svg">
<path d="M252.556 223.251L235.75 71.162C232.109 38.2014 224.54 4.69439 188.58 0L68.6017 0.229129C56.5522 0.25263 45.8944 5.17029 37.3447 12.5321C22.5001 25.3109 20.0397 46.092 31.9072 61.3796C37.0335 61.597 40.9795 61.7439 45.1604 61.4912L16.7572 200.361L7.06834 221.4C4.05597 227.939 1.81873 233.151 2.82285 241.165C3.55098 246.958 7.27973 255.988 15.5652 255.988L236.566 256C242.967 256 250.724 252.498 252.427 246.664C254.623 239.138 253.437 231.271 252.55 223.245L252.556 223.251ZM38.707 49.5584C34.3499 40.1814 35.1309 29.359 42.4417 22.2029C48.9714 15.8164 57.7325 14.1067 66.7931 12.3617L161.222 12.1972C148.761 21.2746 144.052 35.6456 148.726 49.5643L38.7011 49.5526L38.707 49.5584ZM187.787 38.3835C184.581 51.3504 165.273 51.7734 161.275 47.9251C159.184 45.9098 158.485 42.8899 158.908 38.3718L187.781 38.3835H187.787ZM202.015 208.498L197.91 243.744L15.6181 243.756C13.0813 240.707 13.6509 237.457 15.0367 234.385L26.7574 208.427C27.9905 204.45 29.2236 200.478 30.4568 196.501L49.5057 102.06C50.3043 98.0711 51.1029 94.0817 51.9015 90.0924L57.5857 61.7674L159.572 61.6381C172.185 64.3349 184.469 60.9683 193.037 51.8851C201.439 42.6784 203.512 27.9196 196.096 26.8209C185.297 25.2228 175.021 25.7046 164.216 25.8221C168.65 20.029 174.745 15.6813 182.15 13.8775C193.359 11.1396 203.612 16.2512 210.729 25.4167C214.851 33.2191 220.653 42.4787 219.719 51.4385L215.697 90.11C215.157 94.3402 214.616 98.5705 214.076 102.795L203.43 195.872C202.954 200.084 202.485 204.291 202.009 208.504L202.015 208.498ZM239.578 243.221L210.171 243.803L215.55 198.24L226.66 100.216L241.687 234.872C241.974 237.446 243.319 243.151 239.578 243.227V243.221Z" fill="#E84B3C"/>
<path d="M62.077 155.481H51.9795V132.037H62.077C63.5279 132.061 64.738 132.225 65.7013 132.548C67.346 133.089 68.6736 134.082 69.6957 135.521C70.5122 136.69 71.0702 137.947 71.3639 139.304C71.6576 140.66 71.8103 141.953 71.8103 143.186C71.8103 146.305 71.1818 148.943 69.9306 151.105C68.233 154.018 65.6132 155.481 62.0711 155.481H62.077ZM65.7189 138.017C64.9671 136.742 63.475 136.108 61.2488 136.108H56.7316V151.41H61.2488C63.5631 151.41 65.1726 150.27 66.0831 147.991C66.5824 146.74 66.8291 145.248 66.8291 143.521C66.8291 141.136 66.4591 139.304 65.7131 138.017H65.7189Z" fill="#E84B3C"/>
<path d="M90.1903 145.236H78.8005V151.263H91.7822V155.481H74.0132V132.037H91.2066V136.19H78.8005V141.172H90.1903V145.242V145.236Z" fill="#E84B3C"/>
<path d="M93.9673 132.037H98.8663V151.269H110.479V155.487H93.9673V132.043V132.037Z" fill="#E84B3C"/>
<path d="M111.86 132.037H116.729V155.481H111.86V132.037Z" fill="#E84B3C"/>
<path d="M117.928 132.037H123.161L128.254 149.836L133.394 132.037H138.481L130.481 155.481H125.852L117.933 132.037H117.928Z" fill="#E84B3C"/>
<path d="M156.08 145.236H144.69V151.263H157.672V155.481H139.902V132.037H157.096V136.19H144.69V141.172H156.08V145.242V145.236Z" fill="#E84B3C"/>
<path d="M169.813 146.288H164.756V155.481H159.968V132.037H171.47C173.114 132.067 174.377 132.272 175.264 132.642C176.151 133.012 176.897 133.559 177.514 134.281C178.025 134.875 178.425 135.532 178.724 136.255C179.018 136.977 179.171 137.8 179.171 138.722C179.171 139.838 178.889 140.931 178.325 142.006C177.761 143.081 176.833 143.844 175.54 144.291C176.621 144.725 177.391 145.342 177.837 146.141C178.289 146.94 178.513 148.162 178.513 149.806V151.381C178.513 152.45 178.554 153.178 178.642 153.56C178.771 154.165 179.065 154.611 179.535 154.893V155.481H174.142C173.995 154.964 173.89 154.541 173.825 154.224C173.696 153.566 173.631 152.89 173.62 152.203L173.59 150.024C173.567 148.526 173.297 147.533 172.774 147.034C172.251 146.535 171.264 146.288 169.825 146.288H169.813ZM172.791 142.023C173.766 141.577 174.254 140.696 174.254 139.38C174.254 137.958 173.784 137.007 172.838 136.519C172.31 136.243 171.511 136.108 170.453 136.108H164.761V142.405H170.312C171.417 142.405 172.245 142.276 172.791 142.023Z" fill="#E84B3C"/>
<path d="M200.681 132.037L192.84 146.67V155.481H187.941V146.67L179.828 132.037H185.603L190.472 142.246L195.13 132.037H200.681Z" fill="#E84B3C"/>
</svg>
