<svg width="256" height="256" viewBox="0 0 256 256" fill="none" xmlns="http://www.w3.org/2000/svg">
<path d="M162.868 169.051C164.805 171.011 167.896 175.237 169.054 177.727C172.547 185.263 172.889 207.771 171.863 216.324C171.425 219.989 162.357 222.077 158.929 222.962C135.404 229.034 108.597 226.162 85.8833 218.138C85.8924 214.377 85.4502 210.634 85.5185 206.827C85.8331 189.699 85.1949 174.198 101.557 164.145C115.399 155.642 150.759 156.8 162.868 169.051Z" fill="#E84B3C"/>
<path d="M97.8691 133.28L99.9161 143.921L107.302 155.743C90.2874 160.192 80.8683 175.328 79.9154 192.361C79.7696 194.941 82.0856 200.034 77.9733 200.007C73.5692 199.975 66.0741 198.425 61.4968 197.568C58.4878 197.007 43.4793 193.797 42.0341 192.384C41.3229 191.686 41.3958 191.107 41.291 190.227C40.215 181.073 40.9354 159.823 44.8242 151.63C54.9773 130.248 77.9186 133.075 97.8737 133.28H97.8691Z" fill="#E84B3C"/>
<path d="M178.341 199.975C178.282 190.866 177.708 181.588 173.29 173.491C168.79 165.244 160.082 157.726 150.795 155.743L157.67 144.86C159.061 141.163 160.169 137.274 160.228 133.28C174.676 133.608 189.201 130.891 201.483 140.224C218.115 152.866 213.574 173.66 213.515 192.005C202.919 197.545 190.227 199.656 178.341 199.975Z" fill="#E84B3C"/>
<path d="M219.669 162.636C218.21 148.284 206.872 134.092 192.848 130.367C197.061 123.214 202.286 116.899 201.542 107.895C221.931 107.065 245.1 106.204 253.375 128.931C255.668 135.222 256.169 150.468 255.955 157.594C255.905 159.18 255.431 165.029 255.084 166.142C253.867 170.026 224.739 175.593 219.674 174.594C219.396 170.733 220.057 166.429 219.674 162.631L219.669 162.636Z" fill="#E84B3C"/>
<path d="M36.3307 162.636C37.7896 148.284 49.128 134.092 63.1517 130.367C58.9391 123.214 53.7144 116.899 54.4576 107.895C34.0694 107.065 10.9002 106.204 2.62544 128.931C0.332225 135.222 -0.169275 150.468 0.0450014 157.594C0.0951513 159.18 0.569297 165.029 0.915787 166.142C2.13306 170.026 31.261 175.593 36.3261 174.594C36.6042 170.733 35.9432 166.429 36.3261 162.631L36.3307 162.636Z" fill="#E84B3C"/>
<path d="M108.277 77.1943C82.5551 51.472 122.169 12.2913 147.458 38.3783C172.693 64.4107 133.434 102.347 108.277 77.1943Z" fill="#E84B3C"/>
<path d="M125.971 107.366C158.838 103.031 165.001 154.188 132.235 157.844C98.8812 161.569 93.1185 111.702 125.971 107.366Z" fill="#E84B3C"/>
<path d="M82.4868 81.2793C95.7172 79.9936 109.549 91.1542 110.215 104.672C110.443 109.286 107.466 109.559 105.136 112.627C103.846 114.323 102.013 116.877 101.106 118.746C98.4025 124.308 100.244 127.668 93.7203 130.207C58.6474 143.866 44.4413 84.9767 82.4868 81.2793Z" fill="#E84B3C"/>
<path d="M201.693 104.12C200.84 98.9958 199.395 93.7985 196.341 89.5403C194.79 87.3748 187.336 81.1926 187.136 80.5817C185.8 76.6062 191.636 65.9334 194.667 62.9563C207.278 50.5739 229.585 55.2242 235.968 71.6596C244.288 93.0873 222.4 113.621 201.693 104.116V104.12Z" fill="#E84B3C"/>
<path d="M53.5002 103.395C52.9166 104.202 46.1053 105.638 44.6145 105.748C25.5667 107.125 11.8895 87.6939 19.7721 70.0366C28.6304 50.1955 57.4985 50.3642 65.992 70.5427C66.7716 72.3937 68.6135 78.211 68.0573 79.8569C67.802 80.6137 59.3175 87.7623 57.2523 91.5691C55.6976 94.4368 53.9789 102.734 53.4956 103.395H53.5002Z" fill="#E84B3C"/>
<path d="M188.964 124.317C183.621 129.742 175.478 132.45 167.919 131.73C157.898 130.773 160.716 128.119 157.871 120.761C156.622 117.528 154.589 114.433 152.263 111.866C146.66 105.684 143.223 107.261 147.39 96.8804C153.549 81.5483 173.203 76.3829 186.333 86.4903C197.991 95.4671 199.29 113.827 188.959 124.312L188.964 124.317Z" fill="#E84B3C"/>
<path d="M97.7414 42.7916C98.1563 43.4982 95.006 54.6269 95.0516 57.4353C95.0926 59.9565 96.1822 64.6067 96.9482 67.1416C97.6457 69.453 101.69 76.1731 101.17 77.4269C99.4465 81.603 94.4133 77.828 91.3542 77.0849C84.6614 75.4573 79.0903 75.822 72.8534 78.8721C71.9143 78.79 71.0435 72.7903 70.4508 71.1627C69.1651 67.6339 66.1151 62.6509 63.4298 60.0568C59.5729 56.3275 56.149 57.955 58.8297 51.814C64.2778 39.3403 77.9414 34.298 90.6019 38.6838C91.6961 39.0622 97.4132 42.2308 97.7414 42.787V42.7916Z" fill="#E84B3C"/>
<path d="M181.961 78.1791C177.785 77.2172 173.623 75.8038 169.264 75.9634C165.644 76.0956 159.581 78.9587 157.648 78.863C156.667 78.8128 155.149 77.5226 154.775 76.702C153.663 74.2492 156.722 70.7342 157.652 67.9942C159.216 63.3804 159.904 58.8623 159.407 53.975C158.646 46.4844 153.987 44.7748 163.082 40.0698C175.004 33.9014 191.33 37.7401 197.316 50.1317C200.079 55.8579 195.798 55.0783 191.781 58.6161C186.133 63.5901 183.11 70.8299 181.961 78.17V78.1791Z" fill="#E84B3C"/>
<path d="M146.446 87.6072C143.966 92.5903 140.811 97.7193 141.367 103.546C132.181 100.692 123.245 100.222 114.555 104.996C114.628 98.8864 112.235 93.2149 109.463 87.9674C109.476 87.4066 113.311 86.8915 114.159 86.8413C117.97 86.5951 145.297 86.4675 146.446 87.6027V87.6072Z" fill="#E84B3C"/>
</svg>
