<svg width="256" height="256" viewBox="0 0 256 256" fill="none" xmlns="http://www.w3.org/2000/svg">
<path d="M129.932 204.446C77.8411 204.346 31.5783 167.681 0 128.006C31.1419 88.8076 76.8727 52.4421 128.009 51.551C179.095 52.4512 224.976 88.7758 256 128.001C225.267 166.735 180.523 202.419 129.932 204.446ZM189.325 128.001C189.325 94.1404 161.874 66.6901 128.014 66.6901C94.1531 66.6901 66.7028 94.1404 66.7028 128.001C66.7028 161.862 94.1531 189.312 128.014 189.312C161.874 189.312 189.325 161.862 189.325 128.001ZM61.4473 165.526C48.3359 140.021 49.0087 113.862 61.8428 89.8396C45.2444 100.942 32.0511 113.758 19.0307 127.996C32.0421 142.099 45.1035 155.347 61.4473 165.526ZM237.042 128.051C223.876 113.658 210.342 100.464 194.33 90.1079C207.541 115.167 207.273 141.358 194.248 165.912C210.965 155.265 223.835 142.281 237.042 128.051Z" fill="#E84B3C"/>
<path d="M92.2891 107.411C95.3851 113.453 100.031 117.576 106.837 117.185C112.547 116.858 118.048 112.68 119.508 106.52C120.972 100.341 118.248 93.7221 111.183 90.3669C129.396 81.9154 151.018 88.3257 162.22 104.86C173.594 121.654 171.185 144.304 156.155 158.252C141.662 171.7 119.453 173.068 103.423 161.18C87.2792 149.205 81.1872 126.842 92.2846 107.415L92.2891 107.411ZM155.409 148.491C155.409 144.399 152.095 141.085 148.004 141.085C143.912 141.085 140.598 144.399 140.598 148.491C140.598 152.583 143.912 155.897 148.004 155.897C152.095 155.897 155.409 152.583 155.409 148.491Z" fill="#E84B3C"/>
</svg>
