<svg width="256" height="256" viewBox="0 0 256 256" fill="none" xmlns="http://www.w3.org/2000/svg">
<path d="M88.2596 25.5923C131.078 20.3933 163.04 63.669 143.367 102.498C126.053 136.673 77.72 140.945 54.123 110.705C29.5777 79.2605 48.6025 30.4043 88.2542 25.5923H88.2596ZM93.1043 80.3341V103.277C90.7065 103.555 85.7855 101.174 84.2868 99.4841C80.0906 94.7647 84.968 89.8219 73.6 91.8056C73.0551 100.705 78.7881 105.212 86.2378 108.416C87.9108 109.135 92.7665 109.997 92.9899 110.264C94.663 112.253 89.5239 117.593 98.8428 115.899C98.0962 107.937 99.1426 111.059 104.619 109.642C128.609 103.43 120.02 77.3476 98.8374 74.5956V52.8024C101.655 52.6934 106.233 54.6607 108.053 56.7807C111.955 61.3311 108.102 67.3148 118.342 65.4238C119.274 57.0095 114.402 50.7751 106.848 47.6579C100.995 45.2437 97.4641 48.0449 98.8265 40.1756C91.5839 38.6987 94.1616 44.1919 92.9136 45.7233C92.6684 46.0285 87.1806 47.1565 85.4258 47.9958C66.9732 56.8297 75.3712 77.7782 93.0989 80.3286L93.1043 80.3341Z" fill="#E84B3C"/>
<path d="M256 92.95H214.702V246.668H256V92.95Z" fill="#E84B3C"/>
<path d="M204.375 114.749V246.668H163.078V116.465C163.078 114.182 167.754 115.926 169.318 115.948C180.822 116.122 193.171 116.563 204.375 114.743V114.749Z" fill="#E84B3C"/>
<path d="M153.901 137.692V244.952C153.901 245.072 152.304 246.674 152.179 246.674H112.603V137.697H153.901V137.692Z" fill="#E84B3C"/>
<path d="M102.282 161.779H60.9841V246.668H102.282V161.779Z" fill="#E84B3C"/>
<path d="M9.35948 184.722H50.0848C50.2047 184.722 51.8069 186.319 51.8069 186.444V244.946C51.8069 245.066 50.2101 246.668 50.0848 246.668H11.0816C10.9617 246.668 9.35948 245.072 9.35948 244.946V184.722Z" fill="#E84B3C"/>
<path d="M244.518 9.21606L238.785 50.5026C237.411 52.1048 227.155 42.6388 225.596 41.3745C206.087 59.3583 185.759 76.7264 163.089 90.6557C163.427 88.0126 160.195 80.9989 161.296 79.1951C162.026 77.9962 180.893 65.7017 184.25 63.075C195.58 54.2248 206.19 44.508 216.964 35.0202L204.375 24.1372L244.518 9.21606Z" fill="#E84B3C"/>
<path d="M59.8342 138.825L0.193167 156.041C0.580093 153.218 -0.520749 148.967 0.334847 146.444C0.977906 144.553 16.4495 141.779 19.9318 140.803C26.1771 139.054 43.3381 132.166 47.9049 131.991C51.0984 131.872 57.5453 136.269 59.8342 138.82V138.825Z" fill="#E84B3C"/>
<path d="M98.8374 103.277V82.6284C113.9 84.6284 115.192 103.321 98.8374 103.277Z" fill="#E84B3C"/>
<path d="M93.1044 52.8022V72.3011C80.9789 69.7834 80.1287 54.8186 93.1044 52.8022Z" fill="#E84B3C"/>
</svg>
